<?xml version="1.0" encoding="UTF-8" standalone="no"?>
<svg version="1.1" xmlns="http://www.w3.org/2000/svg" xmlns:xlink="http://www.w3.org/1999/xlink" width="510" height="75">
<defs>
<path d="M 17.22589,52.88833 c 0,0 4.67904,-0.23714 4.10348,-4.68969 -0.45091,-3.48826 -7.74585,-4.57058 -7.79207,1.22494 -0.0424,5.31744 4.74468,6.17996 7.57623,6.10804 2.90443,-0.072 6.48587,-1.78959 6.51762,-6.16056 0.0537,-7.46749 -8.50008,-43.08664 -8.79319,-45.57803 -0.2931,-2.4914 -0.11991,-9.49931 5.41981,-12.52096 0.79139,1.65471 4.88577,6.16652 -4.67638,15.66519 -9.23285,9.17155 -13.13331,11.62304 -11.08208,22.25743 1.5643,8.11001 9.95134,10.71952 13.6414,10.85469 5.009,0.18346 10.79793,-4.40529 10.50789,-11.08918 -0.413,-9.51795 -11.97935,-12.08021 -15.96629,-5.45445 -4.21555,7.00564 2.63794,12.22521 4.65238,11.7216 -4.03913,-2.47487 -6.04473,-10.72721 2.7792,-10.77033 3.66775,-0.0179 6.17424,4.33701 5.50986,8.12657 -0.55858,3.18614 -3.64965,6.1882 -7.26851,6.08909 C 12.13915,38.39289 4.61164,26.65844 17.511,16.18876 c 17.06821,-13.8533 6.98309,-28.87207 5.87011,-30.12866 -3.88499,2.94971 -8.19181,7.08357 -4.61242,24.04003 1.98224,9.39039 5.7955,27.78116 7.10382,34.14158 1.13172,5.50182 0.42522,9.49087 -4.39659,9.96561 -2.24627,0.22115 -3.52526,-0.59421 -4.25003,-1.31899 z" id="treble_clef" style="fill:#000000;stroke:none"/>
<path d="M -0.18502,-5.21645 c -4.66699,0 -8.44151,2.2354 -8.44151,5.00618 0,2.77078 3.77452,5.02087 8.44151,5.02087 4.667,0 8.45619,-2.25009 8.45619,-5.02087 0,-2.77078 -3.78919,-5.00618 -8.45619,-5.00618 z m -1.1451,0.86617 c 1.38616,-0.0438 3.07217,1.09574 4.14,2.93617 1.31424,2.26517 1.19296,4.72664 -0.27894,5.49065 -1.47191,0.76404 -3.73598,-0.45079 -5.05023,-2.71596 -1.31424,-2.26515 -1.19296,-4.72663 0.27894,-5.49065 0.27599,-0.14324 0.59034,-0.21009 0.91023,-0.22021 z" id="note1" style="fill:#000000;stroke:none"/>
<path id="addline" d="M -12 0 h 24" style="fill:none;stroke:#000;stroke-width:1px;"/>
</defs>

<rect width="510" height="75" fill="#fff"/>

<g transform="translate(5.5 15.5)">

<path id="lines" style="fill:none;stroke:#000;stroke-width:1px;stroke-linecap:square;" d=" M 0 0 v 40 M 0 0 h 580 M 0 10 h 580 M 0 20 h 580 M 0 30 h 580 M 0 40 h 580 "/>

<use xlink:href="#treble_clef"/>
<use xlink:href="#addline" transform="translate(60 50)"/>
<use xlink:href="#note1" transform="translate(60 50)"/>
<use xlink:href="#note1" transform="translate(90 45)"/>
<use xlink:href="#note1" transform="translate(120 40)"/>
<use xlink:href="#note1" transform="translate(150 35)"/>
<use xlink:href="#note1" transform="translate(180 30)"/>
<use xlink:href="#note1" transform="translate(210 25)"/>
<use xlink:href="#note1" transform="translate(240 20)"/>
<use xlink:href="#note1" transform="translate(270 15)"/>
<use xlink:href="#note1" transform="translate(300 20)"/>
<use xlink:href="#note1" transform="translate(330 25)"/>
<use xlink:href="#note1" transform="translate(360 30)"/>
<use xlink:href="#note1" transform="translate(390 35)"/>
<use xlink:href="#note1" transform="translate(420 40)"/>
<use xlink:href="#note1" transform="translate(450 45)"/>
<use xlink:href="#addline" transform="translate(480 50)"/>
<use xlink:href="#note1" transform="translate(480 50)"/>

</g>

</svg>